<svg xmlns="http://www.w3.org/2000/svg" version="1.1" xmlns:xlink="http://www.w3.org/1999/xlink" xmlns:svgjs="http://svgjs.dev/svgjs" width="1440" height="560" preserveAspectRatio="none" viewBox="0 0 1440 560"><g mask="url(&quot;#SvgjsMask1779&quot;)" fill="none"><rect width="1440" height="560" x="0" y="0" fill="url(&quot;#SvgjsLinearGradient1780&quot;)"></rect><path d="M-71.52 344.46L-71.52 344.46" stroke="rgba(19, 46, 101, 0.04)" stroke-width="1.5"></path><path d="M-71.52 344.46L74.8 372.64" stroke="rgba(19, 46, 101, 0.04)" stroke-width="1.5"></path><path d="M-108.36 543.33L-108.36 543.33" stroke="rgba(19, 46, 101, 0.04)" stroke-width="1.5"></path><path d="M-108.36 543.33L-98.23 673.42" stroke="rgba(19, 46, 101, 0.04)" stroke-width="1.5"></path><path d="M-108.36 543.33L53.48 541.61" stroke="rgba(19, 46, 101, 0.04)" stroke-width="1.5"></path><path d="M-108.36 543.33L-71.52 344.46" stroke="rgba(19, 46, 101, 0.04)" stroke-width="1.5"></path><path d="M-108.36 543.33L85.09 665.2" stroke="rgba(19, 46, 101, 0.04)" stroke-width="1.5"></path><path d="M-108.36 543.33L74.8 372.64" stroke="rgba(19, 46, 101, 0.04)" stroke-width="1.5"></path><path d="M-98.23 673.42L-98.23 673.42" stroke="rgba(19, 46, 101, 0.04)" stroke-width="1.5"></path><path d="M-98.23 673.42L85.09 665.2" stroke="rgba(19, 46, 101, 0.04)" stroke-width="1.5"></path><path d="M-98.23 673.42L53.48 541.61" stroke="rgba(19, 46, 101, 0.04)" stroke-width="1.5"></path><path d="M-98.23 673.42L197.72 543.29" stroke="rgba(19, 46, 101, 0.04)" stroke-width="1.5"></path><path d="M-98.23 673.42L-71.52 344.46" stroke="rgba(19, 46, 101, 0.04)" stroke-width="1.5"></path><path d="M74.8 372.64L74.8 372.64" stroke="rgba(19, 46, 101, 0.04)" stroke-width="1.5"></path><path d="M74.8 372.64L228.02 408.62" stroke="rgba(19, 46, 101, 0.04)" stroke-width="1.5"></path><path d="M53.48 541.61L53.48 541.61" stroke="rgba(19, 46, 101, 0.04)" stroke-width="1.5"></path><path d="M53.48 541.61L85.09 665.2" stroke="rgba(19, 46, 101, 0.04)" stroke-width="1.5"></path><path d="M53.48 541.61L197.72 543.29" stroke="rgba(19, 46, 101, 0.04)" stroke-width="1.5"></path><path d="M53.48 541.61L74.8 372.64" stroke="rgba(19, 46, 101, 0.04)" stroke-width="1.5"></path><path d="M85.09 665.2L85.09 665.2" stroke="rgba(19, 46, 101, 0.04)" stroke-width="1.5"></path><path d="M85.09 665.2L197.72 543.29" stroke="rgba(19, 46, 101, 0.04)" stroke-width="1.5"></path><path d="M228.02 408.62L228.02 408.62" stroke="rgba(19, 46, 101, 0.04)" stroke-width="1.5"></path><path d="M228.02 408.62L197.72 543.29" stroke="rgba(19, 46, 101, 0.04)" stroke-width="1.5"></path><path d="M228.02 408.62L371.37 358.01" stroke="rgba(19, 46, 101, 0.04)" stroke-width="1.5"></path><path d="M228.02 408.62L53.48 541.61" stroke="rgba(19, 46, 101, 0.04)" stroke-width="1.5"></path><path d="M197.72 543.29L197.72 543.29" stroke="rgba(19, 46, 101, 0.04)" stroke-width="1.5"></path><path d="M197.72 543.29L251.2 661.56" stroke="rgba(19, 46, 101, 0.04)" stroke-width="1.5"></path><path d="M251.2 661.56L251.2 661.56" stroke="rgba(19, 46, 101, 0.04)" stroke-width="1.5"></path><path d="M251.2 661.56L370.19 689.75" stroke="rgba(19, 46, 101, 0.04)" stroke-width="1.5"></path><path d="M251.2 661.56L85.09 665.2" stroke="rgba(19, 46, 101, 0.04)" stroke-width="1.5"></path><path d="M251.2 661.56L402.14 554.1" stroke="rgba(19, 46, 101, 0.04)" stroke-width="1.5"></path><path d="M371.37 358.01L371.37 358.01" stroke="rgba(19, 46, 101, 0.04)" stroke-width="1.5"></path><path d="M371.37 358.01L536.31 343.97" stroke="rgba(19, 46, 101, 0.04)" stroke-width="1.5"></path><path d="M402.14 554.1L402.14 554.1" stroke="rgba(19, 46, 101, 0.04)" stroke-width="1.5"></path><path d="M402.14 554.1L496.65 540.41" stroke="rgba(19, 46, 101, 0.04)" stroke-width="1.5"></path><path d="M402.14 554.1L370.19 689.75" stroke="rgba(19, 46, 101, 0.04)" stroke-width="1.5"></path><path d="M402.14 554.1L552 641.65" stroke="rgba(19, 46, 101, 0.04)" stroke-width="1.5"></path><path d="M402.14 554.1L371.37 358.01" stroke="rgba(19, 46, 101, 0.04)" stroke-width="1.5"></path><path d="M370.19 689.75L370.19 689.75" stroke="rgba(19, 46, 101, 0.04)" stroke-width="1.5"></path><path d="M370.19 689.75L552 641.65" stroke="rgba(19, 46, 101, 0.04)" stroke-width="1.5"></path><path d="M536.31 343.97L536.31 343.97" stroke="rgba(19, 46, 101, 0.04)" stroke-width="1.5"></path><path d="M536.31 343.97L655.16 346.84" stroke="rgba(19, 46, 101, 0.04)" stroke-width="1.5"></path><path d="M496.65 540.41L496.65 540.41" stroke="rgba(19, 46, 101, 0.04)" stroke-width="1.5"></path><path d="M552 641.65L552 641.65" stroke="rgba(19, 46, 101, 0.04)" stroke-width="1.5"></path><path d="M552 641.65L496.65 540.41" stroke="rgba(19, 46, 101, 0.04)" stroke-width="1.5"></path><path d="M552 641.65L665.72 700.66" stroke="rgba(19, 46, 101, 0.04)" stroke-width="1.5"></path><path d="M552 641.65L664.2 494.71" stroke="rgba(19, 46, 101, 0.04)" stroke-width="1.5"></path><path d="M655.16 346.84L655.16 346.84" stroke="rgba(19, 46, 101, 0.04)" stroke-width="1.5"></path><path d="M655.16 346.84L664.2 494.71" stroke="rgba(19, 46, 101, 0.04)" stroke-width="1.5"></path><path d="M655.16 346.84L818.32 364.78" stroke="rgba(19, 46, 101, 0.04)" stroke-width="1.5"></path><path d="M655.16 346.84L799.36 503.9" stroke="rgba(19, 46, 101, 0.04)" stroke-width="1.5"></path><path d="M655.16 346.84L805.42 190.52" stroke="rgba(19, 46, 101, 0.04)" stroke-width="1.5"></path><path d="M664.2 494.71L664.2 494.71" stroke="rgba(19, 46, 101, 0.04)" stroke-width="1.5"></path><path d="M664.2 494.71L799.36 503.9" stroke="rgba(19, 46, 101, 0.04)" stroke-width="1.5"></path><path d="M664.2 494.71L496.65 540.41" stroke="rgba(19, 46, 101, 0.04)" stroke-width="1.5"></path><path d="M665.72 700.66L665.72 700.66" stroke="rgba(19, 46, 101, 0.04)" stroke-width="1.5"></path><path d="M665.72 700.66L797.47 646.81" stroke="rgba(19, 46, 101, 0.04)" stroke-width="1.5"></path><path d="M665.72 700.66L664.2 494.71" stroke="rgba(19, 46, 101, 0.04)" stroke-width="1.5"></path><path d="M847.68 78.2L847.68 78.2" stroke="rgba(19, 46, 101, 0.04)" stroke-width="1.5"></path><path d="M847.68 78.2L805.42 190.52" stroke="rgba(19, 46, 101, 0.04)" stroke-width="1.5"></path><path d="M847.68 78.2L972.36 73.46" stroke="rgba(19, 46, 101, 0.04)" stroke-width="1.5"></path><path d="M847.68 78.2L937.52 -87.57" stroke="rgba(19, 46, 101, 0.04)" stroke-width="1.5"></path><path d="M805.42 190.52L805.42 190.52" stroke="rgba(19, 46, 101, 0.04)" stroke-width="1.5"></path><path d="M805.42 190.52L955.37 253.29" stroke="rgba(19, 46, 101, 0.04)" stroke-width="1.5"></path><path d="M805.42 190.52L818.32 364.78" stroke="rgba(19, 46, 101, 0.04)" stroke-width="1.5"></path><path d="M805.42 190.52L972.36 73.46" stroke="rgba(19, 46, 101, 0.04)" stroke-width="1.5"></path><path d="M805.42 190.52L1004.58 393.98" stroke="rgba(19, 46, 101, 0.04)" stroke-width="1.5"></path><path d="M818.32 364.78L818.32 364.78" stroke="rgba(19, 46, 101, 0.04)" stroke-width="1.5"></path><path d="M818.32 364.78L799.36 503.9" stroke="rgba(19, 46, 101, 0.04)" stroke-width="1.5"></path><path d="M799.36 503.9L799.36 503.9" stroke="rgba(19, 46, 101, 0.04)" stroke-width="1.5"></path><path d="M799.36 503.9L797.47 646.81" stroke="rgba(19, 46, 101, 0.04)" stroke-width="1.5"></path><path d="M799.36 503.9L964.45 540.65" stroke="rgba(19, 46, 101, 0.04)" stroke-width="1.5"></path><path d="M797.47 646.81L797.47 646.81" stroke="rgba(19, 46, 101, 0.04)" stroke-width="1.5"></path><path d="M937.52 -87.57L937.52 -87.57" stroke="rgba(19, 46, 101, 0.04)" stroke-width="1.5"></path><path d="M937.52 -87.57L1091.31 -86.85" stroke="rgba(19, 46, 101, 0.04)" stroke-width="1.5"></path><path d="M937.52 -87.57L972.36 73.46" stroke="rgba(19, 46, 101, 0.04)" stroke-width="1.5"></path><path d="M937.52 -87.57L1125.12 106" stroke="rgba(19, 46, 101, 0.04)" stroke-width="1.5"></path><path d="M937.52 -87.57L805.42 190.52" stroke="rgba(19, 46, 101, 0.04)" stroke-width="1.5"></path><path d="M937.52 -87.57L1246.09 -59.13" stroke="rgba(19, 46, 101, 0.04)" stroke-width="1.5"></path><path d="M972.36 73.46L972.36 73.46" stroke="rgba(19, 46, 101, 0.04)" stroke-width="1.5"></path><path d="M972.36 73.46L1125.12 106" stroke="rgba(19, 46, 101, 0.04)" stroke-width="1.5"></path><path d="M955.37 253.29L955.37 253.29" stroke="rgba(19, 46, 101, 0.04)" stroke-width="1.5"></path><path d="M955.37 253.29L1004.58 393.98" stroke="rgba(19, 46, 101, 0.04)" stroke-width="1.5"></path><path d="M955.37 253.29L1100.19 347.34" stroke="rgba(19, 46, 101, 0.04)" stroke-width="1.5"></path><path d="M955.37 253.29L818.32 364.78" stroke="rgba(19, 46, 101, 0.04)" stroke-width="1.5"></path><path d="M955.37 253.29L972.36 73.46" stroke="rgba(19, 46, 101, 0.04)" stroke-width="1.5"></path><path d="M1004.58 393.98L1004.58 393.98" stroke="rgba(19, 46, 101, 0.04)" stroke-width="1.5"></path><path d="M1004.58 393.98L1100.19 347.34" stroke="rgba(19, 46, 101, 0.04)" stroke-width="1.5"></path><path d="M1004.58 393.98L964.45 540.65" stroke="rgba(19, 46, 101, 0.04)" stroke-width="1.5"></path><path d="M1004.58 393.98L1119.08 510.95" stroke="rgba(19, 46, 101, 0.04)" stroke-width="1.5"></path><path d="M1004.58 393.98L818.32 364.78" stroke="rgba(19, 46, 101, 0.04)" stroke-width="1.5"></path><path d="M1004.58 393.98L799.36 503.9" stroke="rgba(19, 46, 101, 0.04)" stroke-width="1.5"></path><path d="M964.45 540.65L964.45 540.65" stroke="rgba(19, 46, 101, 0.04)" stroke-width="1.5"></path><path d="M964.45 540.65L961.06 687.97" stroke="rgba(19, 46, 101, 0.04)" stroke-width="1.5"></path><path d="M961.06 687.97L961.06 687.97" stroke="rgba(19, 46, 101, 0.04)" stroke-width="1.5"></path><path d="M961.06 687.97L1112.5 707.62" stroke="rgba(19, 46, 101, 0.04)" stroke-width="1.5"></path><path d="M961.06 687.97L797.47 646.81" stroke="rgba(19, 46, 101, 0.04)" stroke-width="1.5"></path><path d="M961.06 687.97L1119.08 510.95" stroke="rgba(19, 46, 101, 0.04)" stroke-width="1.5"></path><path d="M961.06 687.97L799.36 503.9" stroke="rgba(19, 46, 101, 0.04)" stroke-width="1.5"></path><path d="M1091.31 -86.85L1091.31 -86.85" stroke="rgba(19, 46, 101, 0.04)" stroke-width="1.5"></path><path d="M1091.31 -86.85L1246.09 -59.13" stroke="rgba(19, 46, 101, 0.04)" stroke-width="1.5"></path><path d="M1091.31 -86.85L1125.12 106" stroke="rgba(19, 46, 101, 0.04)" stroke-width="1.5"></path><path d="M1091.31 -86.85L972.36 73.46" stroke="rgba(19, 46, 101, 0.04)" stroke-width="1.5"></path><path d="M1125.12 106L1125.12 106" stroke="rgba(19, 46, 101, 0.04)" stroke-width="1.5"></path><path d="M1125.12 106L1152.32 195.04" stroke="rgba(19, 46, 101, 0.04)" stroke-width="1.5"></path><path d="M1125.12 106L1257.89 57.83" stroke="rgba(19, 46, 101, 0.04)" stroke-width="1.5"></path><path d="M1152.32 195.04L1152.32 195.04" stroke="rgba(19, 46, 101, 0.04)" stroke-width="1.5"></path><path d="M1152.32 195.04L1305.61 200.59" stroke="rgba(19, 46, 101, 0.04)" stroke-width="1.5"></path><path d="M1152.32 195.04L1100.19 347.34" stroke="rgba(19, 46, 101, 0.04)" stroke-width="1.5"></path><path d="M1152.32 195.04L1257.89 57.83" stroke="rgba(19, 46, 101, 0.04)" stroke-width="1.5"></path><path d="M1152.32 195.04L1254.23 366.5" stroke="rgba(19, 46, 101, 0.04)" stroke-width="1.5"></path><path d="M1152.32 195.04L955.37 253.29" stroke="rgba(19, 46, 101, 0.04)" stroke-width="1.5"></path><path d="M1100.19 347.34L1100.19 347.34" stroke="rgba(19, 46, 101, 0.04)" stroke-width="1.5"></path><path d="M1100.19 347.34L1254.23 366.5" stroke="rgba(19, 46, 101, 0.04)" stroke-width="1.5"></path><path d="M1100.19 347.34L1119.08 510.95" stroke="rgba(19, 46, 101, 0.04)" stroke-width="1.5"></path><path d="M1119.08 510.95L1119.08 510.95" stroke="rgba(19, 46, 101, 0.04)" stroke-width="1.5"></path><path d="M1119.08 510.95L964.45 540.65" stroke="rgba(19, 46, 101, 0.04)" stroke-width="1.5"></path><path d="M1119.08 510.95L1304.8 541.15" stroke="rgba(19, 46, 101, 0.04)" stroke-width="1.5"></path><path d="M1119.08 510.95L1112.5 707.62" stroke="rgba(19, 46, 101, 0.04)" stroke-width="1.5"></path><path d="M1112.5 707.62L1112.5 707.62" stroke="rgba(19, 46, 101, 0.04)" stroke-width="1.5"></path><path d="M1112.5 707.62L1288.11 683.94" stroke="rgba(19, 46, 101, 0.04)" stroke-width="1.5"></path><path d="M1112.5 707.62L964.45 540.65" stroke="rgba(19, 46, 101, 0.04)" stroke-width="1.5"></path><path d="M1112.5 707.62L1304.8 541.15" stroke="rgba(19, 46, 101, 0.04)" stroke-width="1.5"></path><path d="M1112.5 707.62L797.47 646.81" stroke="rgba(19, 46, 101, 0.04)" stroke-width="1.5"></path><path d="M1246.09 -59.13L1246.09 -59.13" stroke="rgba(19, 46, 101, 0.04)" stroke-width="1.5"></path><path d="M1246.09 -59.13L1257.89 57.83" stroke="rgba(19, 46, 101, 0.04)" stroke-width="1.5"></path><path d="M1257.89 57.83L1257.89 57.83" stroke="rgba(19, 46, 101, 0.04)" stroke-width="1.5"></path><path d="M1257.89 57.83L1398.15 53.24" stroke="rgba(19, 46, 101, 0.04)" stroke-width="1.5"></path><path d="M1305.61 200.59L1305.61 200.59" stroke="rgba(19, 46, 101, 0.04)" stroke-width="1.5"></path><path d="M1305.61 200.59L1413.16 234.07" stroke="rgba(19, 46, 101, 0.04)" stroke-width="1.5"></path><path d="M1305.61 200.59L1257.89 57.83" stroke="rgba(19, 46, 101, 0.04)" stroke-width="1.5"></path><path d="M1305.61 200.59L1254.23 366.5" stroke="rgba(19, 46, 101, 0.04)" stroke-width="1.5"></path><path d="M1305.61 200.59L1398.15 53.24" stroke="rgba(19, 46, 101, 0.04)" stroke-width="1.5"></path><path d="M1305.61 200.59L1125.12 106" stroke="rgba(19, 46, 101, 0.04)" stroke-width="1.5"></path><path d="M1254.23 366.5L1254.23 366.5" stroke="rgba(19, 46, 101, 0.04)" stroke-width="1.5"></path><path d="M1254.23 366.5L1419.45 412.15" stroke="rgba(19, 46, 101, 0.04)" stroke-width="1.5"></path><path d="M1304.8 541.15L1304.8 541.15" stroke="rgba(19, 46, 101, 0.04)" stroke-width="1.5"></path><path d="M1304.8 541.15L1388.9 503.42" stroke="rgba(19, 46, 101, 0.04)" stroke-width="1.5"></path><path d="M1304.8 541.15L1288.11 683.94" stroke="rgba(19, 46, 101, 0.04)" stroke-width="1.5"></path><path d="M1288.11 683.94L1288.11 683.94" stroke="rgba(19, 46, 101, 0.04)" stroke-width="1.5"></path><path d="M1288.11 683.94L1437.87 699.82" stroke="rgba(19, 46, 101, 0.04)" stroke-width="1.5"></path><path d="M1288.11 683.94L1388.9 503.42" stroke="rgba(19, 46, 101, 0.04)" stroke-width="1.5"></path><path d="M1429.58 -92.62L1429.58 -92.62" stroke="rgba(19, 46, 101, 0.04)" stroke-width="1.5"></path><path d="M1429.58 -92.62L1398.15 53.24" stroke="rgba(19, 46, 101, 0.04)" stroke-width="1.5"></path><path d="M1429.58 -92.62L1605.78 -73.31" stroke="rgba(19, 46, 101, 0.04)" stroke-width="1.5"></path><path d="M1429.58 -92.62L1246.09 -59.13" stroke="rgba(19, 46, 101, 0.04)" stroke-width="1.5"></path><path d="M1398.15 53.24L1398.15 53.24" stroke="rgba(19, 46, 101, 0.04)" stroke-width="1.5"></path><path d="M1398.15 53.24L1558.17 90.33" stroke="rgba(19, 46, 101, 0.04)" stroke-width="1.5"></path><path d="M1413.16 234.07L1413.16 234.07" stroke="rgba(19, 46, 101, 0.04)" stroke-width="1.5"></path><path d="M1413.16 234.07L1419.45 412.15" stroke="rgba(19, 46, 101, 0.04)" stroke-width="1.5"></path><path d="M1413.16 234.07L1398.15 53.24" stroke="rgba(19, 46, 101, 0.04)" stroke-width="1.5"></path><path d="M1413.16 234.07L1558.17 90.33" stroke="rgba(19, 46, 101, 0.04)" stroke-width="1.5"></path><path d="M1419.45 412.15L1419.45 412.15" stroke="rgba(19, 46, 101, 0.04)" stroke-width="1.5"></path><path d="M1419.45 412.15L1388.9 503.42" stroke="rgba(19, 46, 101, 0.04)" stroke-width="1.5"></path><path d="M1388.9 503.42L1388.9 503.42" stroke="rgba(19, 46, 101, 0.04)" stroke-width="1.5"></path><path d="M1388.9 503.42L1547.01 554.34" stroke="rgba(19, 46, 101, 0.04)" stroke-width="1.5"></path><path d="M1437.87 699.82L1437.87 699.82" stroke="rgba(19, 46, 101, 0.04)" stroke-width="1.5"></path><path d="M1437.87 699.82L1580.7 689.92" stroke="rgba(19, 46, 101, 0.04)" stroke-width="1.5"></path><path d="M1605.78 -73.31L1605.78 -73.31" stroke="rgba(19, 46, 101, 0.04)" stroke-width="1.5"></path><path d="M1605.78 -73.31L1558.17 90.33" stroke="rgba(19, 46, 101, 0.04)" stroke-width="1.5"></path><path d="M1605.78 -73.31L1398.15 53.24" stroke="rgba(19, 46, 101, 0.04)" stroke-width="1.5"></path><path d="M1558.17 90.33L1558.17 90.33" stroke="rgba(19, 46, 101, 0.04)" stroke-width="1.5"></path><path d="M1558.17 90.33L1429.58 -92.62" stroke="rgba(19, 46, 101, 0.04)" stroke-width="1.5"></path><path d="M1597.97 356.26L1597.97 356.26" stroke="rgba(19, 46, 101, 0.04)" stroke-width="1.5"></path><path d="M1597.97 356.26L1419.45 412.15" stroke="rgba(19, 46, 101, 0.04)" stroke-width="1.5"></path><path d="M1597.97 356.26L1547.01 554.34" stroke="rgba(19, 46, 101, 0.04)" stroke-width="1.5"></path><path d="M1597.97 356.26L1413.16 234.07" stroke="rgba(19, 46, 101, 0.04)" stroke-width="1.5"></path><path d="M1597.97 356.26L1388.9 503.42" stroke="rgba(19, 46, 101, 0.04)" stroke-width="1.5"></path><path d="M1597.97 356.26L1558.17 90.33" stroke="rgba(19, 46, 101, 0.04)" stroke-width="1.5"></path><path d="M1597.97 356.26L1305.61 200.59" stroke="rgba(19, 46, 101, 0.04)" stroke-width="1.5"></path><path d="M1547.01 554.34L1547.01 554.34" stroke="rgba(19, 46, 101, 0.04)" stroke-width="1.5"></path><path d="M1547.01 554.34L1580.7 689.92" stroke="rgba(19, 46, 101, 0.04)" stroke-width="1.5"></path><path d="M1547.01 554.34L1437.87 699.82" stroke="rgba(19, 46, 101, 0.04)" stroke-width="1.5"></path><path d="M1547.01 554.34L1419.45 412.15" stroke="rgba(19, 46, 101, 0.04)" stroke-width="1.5"></path><path d="M1580.7 689.92L1580.7 689.92" stroke="rgba(19, 46, 101, 0.04)" stroke-width="1.5"></path><path d="M1580.7 689.92L1388.9 503.42" stroke="rgba(19, 46, 101, 0.04)" stroke-width="1.5"></path><path d="M1580.7 689.92L1288.11 683.94" stroke="rgba(19, 46, 101, 0.04)" stroke-width="1.5"></path><path d="M1580.7 689.92L1304.8 541.15" stroke="rgba(19, 46, 101, 0.04)" stroke-width="1.5"></path><circle r="5" cx="-71.52" cy="344.46" fill="rgba(19, 46, 101, 0.04)"></circle><circle r="5" cx="-108.36" cy="543.33" fill="rgba(19, 46, 101, 0.04)"></circle><circle r="5" cx="-98.23" cy="673.42" fill="rgba(19, 46, 101, 0.04)"></circle><circle r="5" cx="74.8" cy="372.64" fill="rgba(19, 46, 101, 0.04)"></circle><circle r="5" cx="53.48" cy="541.61" fill="rgba(19, 46, 101, 0.04)"></circle><circle r="5" cx="85.09" cy="665.2" fill="rgba(19, 46, 101, 0.04)"></circle><circle r="5" cx="228.02" cy="408.62" fill="rgba(19, 46, 101, 0.04)"></circle><circle r="5" cx="197.72" cy="543.29" fill="rgba(19, 46, 101, 0.04)"></circle><circle r="5" cx="251.2" cy="661.56" fill="rgba(19, 46, 101, 0.04)"></circle><circle r="5" cx="371.37" cy="358.01" fill="rgba(19, 46, 101, 0.04)"></circle><circle r="5" cx="402.14" cy="554.1" fill="rgba(19, 46, 101, 0.04)"></circle><circle r="5" cx="370.19" cy="689.75" fill="rgba(19, 46, 101, 0.04)"></circle><circle r="5" cx="536.31" cy="343.97" fill="rgba(19, 46, 101, 0.04)"></circle><circle r="5" cx="496.65" cy="540.41" fill="rgba(19, 46, 101, 0.04)"></circle><circle r="5" cx="552" cy="641.65" fill="rgba(19, 46, 101, 0.04)"></circle><circle r="5" cx="655.16" cy="346.84" fill="rgba(19, 46, 101, 0.04)"></circle><circle r="5" cx="664.2" cy="494.71" fill="rgba(19, 46, 101, 0.04)"></circle><circle r="5" cx="665.72" cy="700.66" fill="rgba(19, 46, 101, 0.04)"></circle><circle r="5" cx="847.68" cy="78.2" fill="rgba(19, 46, 101, 0.04)"></circle><circle r="5" cx="805.42" cy="190.52" fill="rgba(19, 46, 101, 0.04)"></circle><circle r="5" cx="818.32" cy="364.78" fill="rgba(19, 46, 101, 0.04)"></circle><circle r="5" cx="799.36" cy="503.9" fill="rgba(19, 46, 101, 0.04)"></circle><circle r="5" cx="797.47" cy="646.81" fill="rgba(19, 46, 101, 0.04)"></circle><circle r="5" cx="937.52" cy="-87.57" fill="rgba(19, 46, 101, 0.04)"></circle><circle r="5" cx="972.36" cy="73.46" fill="rgba(19, 46, 101, 0.04)"></circle><circle r="5" cx="955.37" cy="253.29" fill="rgba(19, 46, 101, 0.04)"></circle><circle r="5" cx="1004.58" cy="393.98" fill="rgba(19, 46, 101, 0.04)"></circle><circle r="5" cx="964.45" cy="540.65" fill="rgba(19, 46, 101, 0.04)"></circle><circle r="5" cx="961.06" cy="687.97" fill="rgba(19, 46, 101, 0.04)"></circle><circle r="5" cx="1091.31" cy="-86.85" fill="rgba(19, 46, 101, 0.04)"></circle><circle r="5" cx="1125.12" cy="106" fill="rgba(19, 46, 101, 0.04)"></circle><circle r="5" cx="1152.32" cy="195.04" fill="rgba(19, 46, 101, 0.04)"></circle><circle r="5" cx="1100.19" cy="347.34" fill="rgba(19, 46, 101, 0.04)"></circle><circle r="5" cx="1119.08" cy="510.95" fill="rgba(19, 46, 101, 0.04)"></circle><circle r="5" cx="1112.5" cy="707.62" fill="rgba(19, 46, 101, 0.04)"></circle><circle r="5" cx="1246.09" cy="-59.13" fill="rgba(19, 46, 101, 0.04)"></circle><circle r="5" cx="1257.89" cy="57.83" fill="rgba(19, 46, 101, 0.04)"></circle><circle r="5" cx="1305.61" cy="200.59" fill="rgba(19, 46, 101, 0.04)"></circle><circle r="5" cx="1254.23" cy="366.5" fill="rgba(19, 46, 101, 0.04)"></circle><circle r="5" cx="1304.8" cy="541.15" fill="rgba(19, 46, 101, 0.04)"></circle><circle r="5" cx="1288.11" cy="683.94" fill="rgba(19, 46, 101, 0.04)"></circle><circle r="5" cx="1429.58" cy="-92.62" fill="rgba(19, 46, 101, 0.04)"></circle><circle r="5" cx="1398.15" cy="53.24" fill="rgba(19, 46, 101, 0.04)"></circle><circle r="5" cx="1413.16" cy="234.07" fill="rgba(19, 46, 101, 0.04)"></circle><circle r="5" cx="1419.45" cy="412.15" fill="rgba(19, 46, 101, 0.04)"></circle><circle r="5" cx="1388.9" cy="503.42" fill="rgba(19, 46, 101, 0.04)"></circle><circle r="5" cx="1437.87" cy="699.82" fill="rgba(19, 46, 101, 0.04)"></circle><circle r="5" cx="1605.78" cy="-73.31" fill="rgba(19, 46, 101, 0.04)"></circle><circle r="5" cx="1558.17" cy="90.33" fill="rgba(19, 46, 101, 0.04)"></circle><circle r="5" cx="1597.97" cy="356.26" fill="rgba(19, 46, 101, 0.04)"></circle><circle r="5" cx="1547.01" cy="554.34" fill="rgba(19, 46, 101, 0.04)"></circle><circle r="5" cx="1580.7" cy="689.92" fill="rgba(19, 46, 101, 0.04)"></circle><path d="M235.93 499.16L235.93 499.16" stroke="hsla(228.5, 77.2%, 51.5%, 0.9)" stroke-width="1.5"></path><path d="M235.93 499.16L374.88 557.96" stroke="hsla(228.5, 77.2%, 51.5%, 0.9)" stroke-width="1.5"></path><path d="M948.15 518.13L948.15 518.13" stroke="hsla(228.5, 77.2%, 51.5%, 0.9)" stroke-width="1.5"></path><path d="M948.15 518.13L844 500.48" stroke="hsla(228.5, 77.2%, 51.5%, 0.9)" stroke-width="1.5"></path><path d="M948.15 518.13L993.33 396.36" stroke="hsla(228.5, 77.2%, 51.5%, 0.9)" stroke-width="1.5"></path><path d="M1237.8 245.53L1237.8 245.53" stroke="hsla(228.5, 77.2%, 51.5%, 0.9)" stroke-width="1.5"></path><path d="M1237.8 245.53L1304.41 344.64" stroke="hsla(228.5, 77.2%, 51.5%, 0.9)" stroke-width="1.5"></path><path d="M1237.8 245.53L1129.92 192.34" stroke="hsla(228.5, 77.2%, 51.5%, 0.9)" stroke-width="1.5"></path><path d="M1237.8 245.53L1149.52 70.25" stroke="hsla(228.5, 77.2%, 51.5%, 0.9)" stroke-width="1.5"></path><path d="M1237.8 245.53L1430.09 197.13" stroke="hsla(228.5, 77.2%, 51.5%, 0.9)" stroke-width="1.5"></path><path d="M1304.41 344.64L1304.41 344.64" stroke="hsla(228.5, 77.2%, 51.5%, 0.9)" stroke-width="1.5"></path><path d="M1304.41 344.64L1431.99 379.03" stroke="hsla(228.5, 77.2%, 51.5%, 0.9)" stroke-width="1.5"></path><path d="M1304.41 344.64L1430.09 197.13" stroke="hsla(228.5, 77.2%, 51.5%, 0.9)" stroke-width="1.5"></path><path d="M1304.41 344.64L1301.62 549.27" stroke="hsla(228.5, 77.2%, 51.5%, 0.9)" stroke-width="1.5"></path><path d="M1304.41 344.64L1413.37 542.09" stroke="hsla(228.5, 77.2%, 51.5%, 0.9)" stroke-width="1.5"></path><path d="M1559.99 236.48L1559.99 236.48" stroke="hsla(228.5, 77.2%, 51.5%, 0.9)" stroke-width="1.5"></path><path d="M1559.99 236.48L1568.09 339.94" stroke="hsla(228.5, 77.2%, 51.5%, 0.9)" stroke-width="1.5"></path><path d="M1559.99 236.48L1430.09 197.13" stroke="hsla(228.5, 77.2%, 51.5%, 0.9)" stroke-width="1.5"></path><path d="M1559.99 236.48L1431.99 379.03" stroke="hsla(228.5, 77.2%, 51.5%, 0.9)" stroke-width="1.5"></path><path d="M1542.4 494.04L1542.4 494.04" stroke="hsla(228.5, 77.2%, 51.5%, 0.9)" stroke-width="1.5"></path><path d="M1542.4 494.04L1413.37 542.09" stroke="hsla(228.5, 77.2%, 51.5%, 0.9)" stroke-width="1.5"></path><path d="M1542.4 494.04L1568.09 339.94" stroke="hsla(228.5, 77.2%, 51.5%, 0.9)" stroke-width="1.5"></path><path d="M1560.73 656.61L1560.73 656.61" stroke="hsla(228.5, 77.2%, 51.5%, 0.9)" stroke-width="1.5"></path><path d="M1560.73 656.61L1448.76 642.2" stroke="hsla(228.5, 77.2%, 51.5%, 0.9)" stroke-width="1.5"></path><path d="M1560.73 656.61L1542.4 494.04" stroke="hsla(228.5, 77.2%, 51.5%, 0.9)" stroke-width="1.5"></path><path d="M1560.73 656.61L1413.37 542.09" stroke="hsla(228.5, 77.2%, 51.5%, 0.9)" stroke-width="1.5"></path><path d="M1560.73 656.61L1301.62 549.27" stroke="hsla(228.5, 77.2%, 51.5%, 0.9)" stroke-width="1.5"></path><path d="M-93.63 525.59L-93.63 525.59" stroke="hsla(228.5, 77.2%, 51.5%, 0.9)" stroke-width="1.5"></path><path d="M-93.63 525.59L76.61 556.2" stroke="hsla(228.5, 77.2%, 51.5%, 0.9)" stroke-width="1.5"></path><path d="M-93.63 525.59L-75.96 704.88" stroke="hsla(228.5, 77.2%, 51.5%, 0.9)" stroke-width="1.5"></path><path d="M-93.63 525.59L39.45 705.41" stroke="hsla(228.5, 77.2%, 51.5%, 0.9)" stroke-width="1.5"></path><path d="M-93.63 525.59L235.93 499.16" stroke="hsla(228.5, 77.2%, 51.5%, 0.9)" stroke-width="1.5"></path><path d="M-93.63 525.59L247.58 697.63" stroke="hsla(228.5, 77.2%, 51.5%, 0.9)" stroke-width="1.5"></path><path d="M-75.96 704.88L-75.96 704.88" stroke="hsla(228.5, 77.2%, 51.5%, 0.9)" stroke-width="1.5"></path><path d="M-75.96 704.88L39.45 705.41" stroke="hsla(228.5, 77.2%, 51.5%, 0.9)" stroke-width="1.5"></path><path d="M-75.96 704.88L76.61 556.2" stroke="hsla(228.5, 77.2%, 51.5%, 0.9)" stroke-width="1.5"></path><path d="M-75.96 704.88L247.58 697.63" stroke="hsla(228.5, 77.2%, 51.5%, 0.9)" stroke-width="1.5"></path><path d="M-75.96 704.88L235.93 499.16" stroke="hsla(228.5, 77.2%, 51.5%, 0.9)" stroke-width="1.5"></path><path d="M76.61 556.2L76.61 556.2" stroke="hsla(228.5, 77.2%, 51.5%, 0.9)" stroke-width="1.5"></path><path d="M76.61 556.2L39.45 705.41" stroke="hsla(228.5, 77.2%, 51.5%, 0.9)" stroke-width="1.5"></path><path d="M76.61 556.2L235.93 499.16" stroke="hsla(228.5, 77.2%, 51.5%, 0.9)" stroke-width="1.5"></path><path d="M39.45 705.41L39.45 705.41" stroke="hsla(228.5, 77.2%, 51.5%, 0.9)" stroke-width="1.5"></path><path d="M39.45 705.41L247.58 697.63" stroke="hsla(228.5, 77.2%, 51.5%, 0.9)" stroke-width="1.5"></path><path d="M247.58 697.63L247.58 697.63" stroke="hsla(228.5, 77.2%, 51.5%, 0.9)" stroke-width="1.5"></path><path d="M247.58 697.63L381.87 667.79" stroke="hsla(228.5, 77.2%, 51.5%, 0.9)" stroke-width="1.5"></path><path d="M247.58 697.63L374.88 557.96" stroke="hsla(228.5, 77.2%, 51.5%, 0.9)" stroke-width="1.5"></path><path d="M247.58 697.63L235.93 499.16" stroke="hsla(228.5, 77.2%, 51.5%, 0.9)" stroke-width="1.5"></path><path d="M247.58 697.63L76.61 556.2" stroke="hsla(228.5, 77.2%, 51.5%, 0.9)" stroke-width="1.5"></path><path d="M374.88 557.96L374.88 557.96" stroke="hsla(228.5, 77.2%, 51.5%, 0.9)" stroke-width="1.5"></path><path d="M374.88 557.96L381.87 667.79" stroke="hsla(228.5, 77.2%, 51.5%, 0.9)" stroke-width="1.5"></path><path d="M374.88 557.96L524.57 507.97" stroke="hsla(228.5, 77.2%, 51.5%, 0.9)" stroke-width="1.5"></path><path d="M381.87 667.79L381.87 667.79" stroke="hsla(228.5, 77.2%, 51.5%, 0.9)" stroke-width="1.5"></path><path d="M381.87 667.79L508 683.92" stroke="hsla(228.5, 77.2%, 51.5%, 0.9)" stroke-width="1.5"></path><path d="M381.87 667.79L524.57 507.97" stroke="hsla(228.5, 77.2%, 51.5%, 0.9)" stroke-width="1.5"></path><path d="M524.57 507.97L524.57 507.97" stroke="hsla(228.5, 77.2%, 51.5%, 0.9)" stroke-width="1.5"></path><path d="M524.57 507.97L508 683.92" stroke="hsla(228.5, 77.2%, 51.5%, 0.9)" stroke-width="1.5"></path><path d="M524.57 507.97L657.5 658.65" stroke="hsla(228.5, 77.2%, 51.5%, 0.9)" stroke-width="1.5"></path><path d="M524.57 507.97L235.93 499.16" stroke="hsla(228.5, 77.2%, 51.5%, 0.9)" stroke-width="1.5"></path><path d="M508 683.92L508 683.92" stroke="hsla(228.5, 77.2%, 51.5%, 0.9)" stroke-width="1.5"></path><path d="M508 683.92L657.5 658.65" stroke="hsla(228.5, 77.2%, 51.5%, 0.9)" stroke-width="1.5"></path><path d="M657.5 658.65L657.5 658.65" stroke="hsla(228.5, 77.2%, 51.5%, 0.9)" stroke-width="1.5"></path><path d="M657.5 658.65L844 500.48" stroke="hsla(228.5, 77.2%, 51.5%, 0.9)" stroke-width="1.5"></path><path d="M830.02 381.67L830.02 381.67" stroke="hsla(228.5, 77.2%, 51.5%, 0.9)" stroke-width="1.5"></path><path d="M830.02 381.67L844 500.48" stroke="hsla(228.5, 77.2%, 51.5%, 0.9)" stroke-width="1.5"></path><path d="M830.02 381.67L993.33 396.36" stroke="hsla(228.5, 77.2%, 51.5%, 0.9)" stroke-width="1.5"></path><path d="M830.02 381.67L948.15 518.13" stroke="hsla(228.5, 77.2%, 51.5%, 0.9)" stroke-width="1.5"></path><path d="M830.02 381.67L1004.84 260.74" stroke="hsla(228.5, 77.2%, 51.5%, 0.9)" stroke-width="1.5"></path><path d="M844 500.48L844 500.48" stroke="hsla(228.5, 77.2%, 51.5%, 0.9)" stroke-width="1.5"></path><path d="M1004.84 260.74L1004.84 260.74" stroke="hsla(228.5, 77.2%, 51.5%, 0.9)" stroke-width="1.5"></path><path d="M1004.84 260.74L993.33 396.36" stroke="hsla(228.5, 77.2%, 51.5%, 0.9)" stroke-width="1.5"></path><path d="M1004.84 260.74L1129.92 192.34" stroke="hsla(228.5, 77.2%, 51.5%, 0.9)" stroke-width="1.5"></path><path d="M1004.84 260.74L1237.8 245.53" stroke="hsla(228.5, 77.2%, 51.5%, 0.9)" stroke-width="1.5"></path><path d="M1004.84 260.74L1149.52 70.25" stroke="hsla(228.5, 77.2%, 51.5%, 0.9)" stroke-width="1.5"></path><path d="M993.33 396.36L993.33 396.36" stroke="hsla(228.5, 77.2%, 51.5%, 0.9)" stroke-width="1.5"></path><path d="M1149.52 70.25L1149.52 70.25" stroke="hsla(228.5, 77.2%, 51.5%, 0.9)" stroke-width="1.5"></path><path d="M1149.52 70.25L1258.12 42.8" stroke="hsla(228.5, 77.2%, 51.5%, 0.9)" stroke-width="1.5"></path><path d="M1149.52 70.25L1129.92 192.34" stroke="hsla(228.5, 77.2%, 51.5%, 0.9)" stroke-width="1.5"></path><path d="M1149.52 70.25L1242.65 -77.04" stroke="hsla(228.5, 77.2%, 51.5%, 0.9)" stroke-width="1.5"></path><path d="M1129.92 192.34L1129.92 192.34" stroke="hsla(228.5, 77.2%, 51.5%, 0.9)" stroke-width="1.5"></path><path d="M1140.87 652.17L1140.87 652.17" stroke="hsla(228.5, 77.2%, 51.5%, 0.9)" stroke-width="1.5"></path><path d="M1140.87 652.17L1257.87 663.06" stroke="hsla(228.5, 77.2%, 51.5%, 0.9)" stroke-width="1.5"></path><path d="M1140.87 652.17L1301.62 549.27" stroke="hsla(228.5, 77.2%, 51.5%, 0.9)" stroke-width="1.5"></path><path d="M1140.87 652.17L948.15 518.13" stroke="hsla(228.5, 77.2%, 51.5%, 0.9)" stroke-width="1.5"></path><path d="M1140.87 652.17L1413.37 542.09" stroke="hsla(228.5, 77.2%, 51.5%, 0.9)" stroke-width="1.5"></path><path d="M1242.65 -77.04L1242.65 -77.04" stroke="hsla(228.5, 77.2%, 51.5%, 0.9)" stroke-width="1.5"></path><path d="M1242.65 -77.04L1258.12 42.8" stroke="hsla(228.5, 77.2%, 51.5%, 0.9)" stroke-width="1.5"></path><path d="M1242.65 -77.04L1402.6 -95.13" stroke="hsla(228.5, 77.2%, 51.5%, 0.9)" stroke-width="1.5"></path><path d="M1242.65 -77.04L1129.92 192.34" stroke="hsla(228.5, 77.2%, 51.5%, 0.9)" stroke-width="1.5"></path><path d="M1242.65 -77.04L1237.8 245.53" stroke="hsla(228.5, 77.2%, 51.5%, 0.9)" stroke-width="1.5"></path><path d="M1258.12 42.8L1258.12 42.8" stroke="hsla(228.5, 77.2%, 51.5%, 0.9)" stroke-width="1.5"></path><path d="M1258.12 42.8L1129.92 192.34" stroke="hsla(228.5, 77.2%, 51.5%, 0.9)" stroke-width="1.5"></path><path d="M1301.62 549.27L1301.62 549.27" stroke="hsla(228.5, 77.2%, 51.5%, 0.9)" stroke-width="1.5"></path><path d="M1301.62 549.27L1413.37 542.09" stroke="hsla(228.5, 77.2%, 51.5%, 0.9)" stroke-width="1.5"></path><path d="M1301.62 549.27L1257.87 663.06" stroke="hsla(228.5, 77.2%, 51.5%, 0.9)" stroke-width="1.5"></path><path d="M1301.62 549.27L1448.76 642.2" stroke="hsla(228.5, 77.2%, 51.5%, 0.9)" stroke-width="1.5"></path><path d="M1257.87 663.06L1257.87 663.06" stroke="hsla(228.5, 77.2%, 51.5%, 0.9)" stroke-width="1.5"></path><path d="M1257.87 663.06L1448.76 642.2" stroke="hsla(228.5, 77.2%, 51.5%, 0.9)" stroke-width="1.5"></path><path d="M1402.6 -95.13L1402.6 -95.13" stroke="hsla(228.5, 77.2%, 51.5%, 0.9)" stroke-width="1.5"></path><path d="M1402.6 -95.13L1589.37 -46.29" stroke="hsla(228.5, 77.2%, 51.5%, 0.9)" stroke-width="1.5"></path><path d="M1402.6 -95.13L1258.12 42.8" stroke="hsla(228.5, 77.2%, 51.5%, 0.9)" stroke-width="1.5"></path><path d="M1402.6 -95.13L1596.42 47.85" stroke="hsla(228.5, 77.2%, 51.5%, 0.9)" stroke-width="1.5"></path><path d="M1430.09 197.13L1430.09 197.13" stroke="hsla(228.5, 77.2%, 51.5%, 0.9)" stroke-width="1.5"></path><path d="M1430.09 197.13L1431.99 379.03" stroke="hsla(228.5, 77.2%, 51.5%, 0.9)" stroke-width="1.5"></path><path d="M1430.09 197.13L1568.09 339.94" stroke="hsla(228.5, 77.2%, 51.5%, 0.9)" stroke-width="1.5"></path><path d="M1430.09 197.13L1596.42 47.85" stroke="hsla(228.5, 77.2%, 51.5%, 0.9)" stroke-width="1.5"></path><path d="M1431.99 379.03L1431.99 379.03" stroke="hsla(228.5, 77.2%, 51.5%, 0.9)" stroke-width="1.5"></path><path d="M1431.99 379.03L1568.09 339.94" stroke="hsla(228.5, 77.2%, 51.5%, 0.9)" stroke-width="1.5"></path><path d="M1431.99 379.03L1542.4 494.04" stroke="hsla(228.5, 77.2%, 51.5%, 0.9)" stroke-width="1.5"></path><path d="M1431.99 379.03L1413.37 542.09" stroke="hsla(228.5, 77.2%, 51.5%, 0.9)" stroke-width="1.5"></path><path d="M1413.37 542.09L1413.37 542.09" stroke="hsla(228.5, 77.2%, 51.5%, 0.9)" stroke-width="1.5"></path><path d="M1413.37 542.09L1448.76 642.2" stroke="hsla(228.5, 77.2%, 51.5%, 0.9)" stroke-width="1.5"></path><path d="M1448.76 642.2L1448.76 642.2" stroke="hsla(228.5, 77.2%, 51.5%, 0.9)" stroke-width="1.5"></path><path d="M1589.37 -46.29L1589.37 -46.29" stroke="hsla(228.5, 77.2%, 51.5%, 0.9)" stroke-width="1.5"></path><path d="M1589.37 -46.29L1596.42 47.85" stroke="hsla(228.5, 77.2%, 51.5%, 0.9)" stroke-width="1.5"></path><path d="M1596.42 47.85L1596.42 47.85" stroke="hsla(228.5, 77.2%, 51.5%, 0.9)" stroke-width="1.5"></path><path d="M1596.42 47.85L1559.99 236.48" stroke="hsla(228.5, 77.2%, 51.5%, 0.9)" stroke-width="1.5"></path><path d="M1596.42 47.85L1568.09 339.94" stroke="hsla(228.5, 77.2%, 51.5%, 0.9)" stroke-width="1.5"></path><path d="M1568.09 339.94L1568.09 339.94" stroke="hsla(228.5, 77.2%, 51.5%, 0.9)" stroke-width="1.5"></path><circle r="25" cx="235.93" cy="499.16" fill="url(&quot;#SvgjsRadialGradient1781&quot;)"></circle><circle r="25" cx="948.15" cy="518.13" fill="url(&quot;#SvgjsRadialGradient1781&quot;)"></circle><circle r="25" cx="1237.8" cy="245.53" fill="url(&quot;#SvgjsRadialGradient1781&quot;)"></circle><circle r="25" cx="1304.41" cy="344.64" fill="url(&quot;#SvgjsRadialGradient1781&quot;)"></circle><circle r="25" cx="1559.99" cy="236.48" fill="url(&quot;#SvgjsRadialGradient1781&quot;)"></circle><circle r="25" cx="1542.4" cy="494.04" fill="url(&quot;#SvgjsRadialGradient1781&quot;)"></circle><circle r="25" cx="1560.73" cy="656.61" fill="url(&quot;#SvgjsRadialGradient1781&quot;)"></circle><circle r="5" cx="-93.63" cy="525.59" fill="rgba(151, 164, 221, 0.95)"></circle><circle r="5" cx="-75.96" cy="704.88" fill="rgba(151, 164, 221, 0.95)"></circle><circle r="5" cx="76.61" cy="556.2" fill="rgba(151, 164, 221, 0.95)"></circle><circle r="5" cx="39.45" cy="705.41" fill="rgba(151, 164, 221, 0.95)"></circle><circle r="5" cx="247.58" cy="697.63" fill="rgba(151, 164, 221, 0.95)"></circle><circle r="5" cx="374.88" cy="557.96" fill="rgba(151, 164, 221, 0.95)"></circle><circle r="5" cx="381.87" cy="667.79" fill="rgba(151, 164, 221, 0.95)"></circle><circle r="5" cx="524.57" cy="507.97" fill="rgba(151, 164, 221, 0.95)"></circle><circle r="5" cx="508" cy="683.92" fill="rgba(151, 164, 221, 0.95)"></circle><circle r="5" cx="657.5" cy="658.65" fill="rgba(151, 164, 221, 0.95)"></circle><circle r="5" cx="830.02" cy="381.67" fill="rgba(151, 164, 221, 0.95)"></circle><circle r="5" cx="844" cy="500.48" fill="rgba(151, 164, 221, 0.95)"></circle><circle r="5" cx="1004.84" cy="260.74" fill="rgba(151, 164, 221, 0.95)"></circle><circle r="5" cx="993.33" cy="396.36" fill="rgba(151, 164, 221, 0.95)"></circle><circle r="5" cx="1149.52" cy="70.25" fill="rgba(151, 164, 221, 0.95)"></circle><circle r="5" cx="1129.92" cy="192.34" fill="rgba(151, 164, 221, 0.95)"></circle><circle r="5" cx="1140.87" cy="652.17" fill="rgba(151, 164, 221, 0.95)"></circle><circle r="5" cx="1242.65" cy="-77.04" fill="rgba(151, 164, 221, 0.95)"></circle><circle r="5" cx="1258.12" cy="42.8" fill="rgba(151, 164, 221, 0.95)"></circle><circle r="5" cx="1301.62" cy="549.27" fill="rgba(151, 164, 221, 0.95)"></circle><circle r="5" cx="1257.87" cy="663.06" fill="rgba(151, 164, 221, 0.95)"></circle><circle r="5" cx="1402.6" cy="-95.13" fill="rgba(151, 164, 221, 0.95)"></circle><circle r="5" cx="1430.09" cy="197.13" fill="rgba(151, 164, 221, 0.95)"></circle><circle r="5" cx="1431.99" cy="379.03" fill="rgba(151, 164, 221, 0.95)"></circle><circle r="5" cx="1413.37" cy="542.09" fill="rgba(151, 164, 221, 0.95)"></circle><circle r="5" cx="1448.76" cy="642.2" fill="rgba(151, 164, 221, 0.95)"></circle><circle r="5" cx="1589.37" cy="-46.29" fill="rgba(151, 164, 221, 0.95)"></circle><circle r="5" cx="1596.42" cy="47.85" fill="rgba(151, 164, 221, 0.95)"></circle><circle r="5" cx="1568.09" cy="339.94" fill="rgba(151, 164, 221, 0.95)"></circle></g><defs><mask id="SvgjsMask1779"><rect width="1440" height="560" fill="#ffffff"></rect></mask><linearGradient x1="15.28%" y1="-39.29%" x2="84.72%" y2="139.29%" gradientUnits="userSpaceOnUse" id="SvgjsLinearGradient1780"><stop stop-color="#0e2a47" offset="0"></stop><stop stop-color="rgba(0, 69, 158, 0.17)" offset="1"></stop></linearGradient><radialGradient id="SvgjsRadialGradient1781"><stop stop-color="#ffffff" offset="0.1"></stop><stop stop-color="rgba(23, 53, 179, 0.9)" offset="0.2"></stop><stop stop-color="rgba(23, 53, 179, 0)" offset="1"></stop></radialGradient></defs></svg>