<svg xmlns="http://www.w3.org/2000/svg" version="1.1" xmlns:xlink="http://www.w3.org/1999/xlink" xmlns:svgjs="http://svgjs.dev/svgjs" width="1440" height="560" preserveAspectRatio="none" viewBox="0 0 1440 560"><g mask="url(&quot;#SvgjsMask1004&quot;)" fill="none"><path d="M-64.58184843063356 2.31350215115593L-4.376032907023031 159.1550138026858 92.2596632208963-57.892313372454595z" fill="rgba(28, 83, 142, 0.4)" class="triangle-float3"></path><path d="M131.7082270322259-52.122553530052926L-33.73947547382505-22.949659682008615-4.566581625780742 142.49804282404233 160.8811208802702 113.32514897599802z" fill="rgba(28, 83, 142, 0.4)" class="triangle-float1"></path><path d="M71.123,152.815C105.774,156.027,145.682,154.309,164.482,125.024C184.266,94.207,173.075,54.546,154.453,23.013C136.206,-7.885,106.989,-31.944,71.123,-33.065C33.362,-34.245,-5.628,-16.662,-21.744,17.507C-36.376,48.53,-15.817,81.831,3.593,110.112C19.746,133.647,42.7,150.181,71.123,152.815" fill="rgba(28, 83, 142, 0.4)" class="triangle-float3"></path><path d="M1265.3652385280623-1.8620393066015026L1320.0606884768647 156.98508139408366 1424.2123592287473-56.557489255403965z" fill="rgba(28, 83, 142, 0.4)" class="triangle-float3"></path><path d="M1289.0519905179235 147.69022694711674L1457.0264033041972 150.62223122858032 1459.9584075856608-17.3521815576934 1291.9839947993871-20.284185839156976z" fill="rgba(28, 83, 142, 0.4)" class="triangle-float2"></path><path d="M1397.7970532379989 187.27019290063546L1503.5228789343716 56.70967137586436 1372.9623574096004-49.01615432050835 1267.2365317132278 81.54436720426276z" fill="rgba(28, 83, 142, 0.4)" class="triangle-float3"></path><path d="M154.09011249310166 592.3207339944188L145.2976718442871 424.55097215565036-13.679649345666746 601.1131746432334z" fill="rgba(28, 83, 142, 0.4)" class="triangle-float1"></path><path d="M37.016,552.283C60.439,552.465,81.729,537.829,92.196,516.874C101.719,497.809,95.771,475.672,84.23,457.756C73.751,441.488,56.365,431.511,37.016,431.214C17.103,430.908,-2.126,439.441,-12.781,456.266C-24.229,474.343,-26.551,497.033,-16.7,516.028C-6.041,536.581,13.864,552.103,37.016,552.283" fill="rgba(28, 83, 142, 0.4)" class="triangle-float1"></path><path d="M134.822,720.149C189.111,721.737,246.787,710.098,276.293,664.5C308.043,615.434,307.715,550.442,276.686,500.916C247.303,454.016,190.152,437.432,134.822,438.694C82.006,439.899,30.473,461.574,3.744,507.144C-23.281,553.219,-20.998,611.129,6.997,656.621C33.724,700.052,83.848,718.658,134.822,720.149" fill="rgba(28, 83, 142, 0.4)" class="triangle-float1"></path><path d="M1388.857,579.858C1417.003,580.059,1447.894,575.441,1462.257,551.235C1476.827,526.679,1466.469,497.003,1452.94,471.859C1438.417,444.868,1419.501,415.406,1388.857,414.819C1357.594,414.22,1334.995,441.678,1320.375,469.319C1306.854,494.881,1302.019,525.618,1317.249,550.201C1331.833,573.741,1361.167,579.661,1388.857,579.858" fill="rgba(28, 83, 142, 0.4)" class="triangle-float2"></path><path d="M1393.33,594.073C1423.173,592.829,1453.011,582.277,1467.981,556.43C1482.982,530.53,1478.169,498.907,1463.589,472.767C1448.564,445.828,1424.112,424.568,1393.33,422.588C1358.904,420.373,1323.497,433.192,1305.451,462.593C1286.658,493.211,1287.098,533.27,1307.062,563.138C1325.256,590.359,1360.616,595.437,1393.33,594.073" fill="rgba(28, 83, 142, 0.4)" class="triangle-float2"></path><path d="M1388.6064985452892 635.9128590902891L1503.1822230357889 513.0454372182685 1380.3148011637684 398.4697127277687 1265.7390766732685 521.3371345997894z" fill="rgba(28, 83, 142, 0.4)" class="triangle-float3"></path></g><defs><mask id="SvgjsMask1004"><rect width="1440" height="560" fill="#ffffff"></rect></mask><style>
                @keyframes float1 {
                    0%{transform: translate(0, 0)}
                    50%{transform: translate(-10px, 0)}
                    100%{transform: translate(0, 0)}
                }

                .triangle-float1 {
                    animation: float1 5s infinite;
                }

                @keyframes float2 {
                    0%{transform: translate(0, 0)}
                    50%{transform: translate(-5px, -5px)}
                    100%{transform: translate(0, 0)}
                }

                .triangle-float2 {
                    animation: float2 4s infinite;
                }

                @keyframes float3 {
                    0%{transform: translate(0, 0)}
                    50%{transform: translate(0, -10px)}
                    100%{transform: translate(0, 0)}
                }

                .triangle-float3 {
                    animation: float3 6s infinite;
                }
            </style></defs></svg>