<svg xmlns="http://www.w3.org/2000/svg" version="1.1" xmlns:xlink="http://www.w3.org/1999/xlink" xmlns:svgjs="http://svgjs.dev/svgjs" width="1440" height="560" preserveAspectRatio="none" viewBox="0 0 1440 560"><g mask="url(&quot;#SvgjsMask1003&quot;)" fill="none"><rect width="1440" height="560" x="0" y="0" fill="#0e2a47"></rect><path d="M902.93 407.36L927.91 407.36L927.91 432.34L902.93 432.34z" stroke="#e73635"></path><path d="M1372.44 510.83L1386.18 510.83L1386.18 542.97L1372.44 542.97z" fill="#d3b714"></path><path d="M799.7 214.03 a54.97 54.97 0 1 0 109.94 0 a54.97 54.97 0 1 0 -109.94 0z" fill="#037b0b"></path><path d="M379.35 303.38 a51.59 51.59 0 1 0 103.18 0 a51.59 51.59 0 1 0 -103.18 0z" fill="#d3b714"></path><path d="M1156.52 534.72L1183.02 534.72L1183.02 548.03L1156.52 548.03z" stroke="#037b0b"></path><path d="M600.05 244.7a53.84 53.84 0 1 0-103.75-28.85z" fill="#037b0b"></path><path d="M490.25 23.16L491.46 23.16L491.46 24.37L490.25 24.37z" stroke="#e73635"></path><path d="M1387.64 317.28a6.31 6.31 0 1 0 2.56-12.36z" fill="#e73635"></path><path d="M950.1 442.49L966.24 442.49L966.24 448.22L950.1 448.22z" fill="#037b0b"></path><path d="M462.62 323.86L517.73 323.86L517.73 360.42L462.62 360.42z" stroke="#e73635"></path><path d="M688.38 8.7L733.3 8.7L733.3 42.24L688.38 42.24z" stroke="#e73635"></path><path d="M642 348.38 a9.56 9.56 0 1 0 19.12 0 a9.56 9.56 0 1 0 -19.12 0z" stroke="#d3b714"></path><path d="M1251.85 149.74L1291.98 149.74L1291.98 194.57L1251.85 194.57z" stroke="#037b0b"></path><path d="M485.99 236.81 a22.29 22.29 0 1 0 44.58 0 a22.29 22.29 0 1 0 -44.58 0z" fill="#037b0b"></path><path d="M872.58 42.12a20.98 20.98 0 1 0-11.21 40.43z" stroke="#d3b714"></path><path d="M374.17 51.92L406.59 51.92L406.59 84.34L374.17 84.34z" stroke="#d3b714"></path><path d="M117.56 26.7a49.98 49.98 0 1 0-3.81 99.88z" stroke="#d3b714"></path><path d="M133.31-5.16a14.06 14.06 0 1 0 18.78 20.93z" stroke="#037b0b"></path><path d="M665.13 280.62L705.01 280.62L705.01 322.1L665.13 322.1z" fill="#e73635"></path><path d="M28.28-4.47a27.68 27.68 0 1 0 42.84 35.06z" fill="#037b0b"></path><path d="M1151.21 1.38L1190.69 1.38L1190.69 40.86L1151.21 40.86z" stroke="#037b0b"></path><path d="M1165.87 422.24L1185.8 422.24L1185.8 442.17L1165.87 442.17z" fill="#037b0b"></path><path d="M196.53 295.96a26.04 26.04 0 1 0-14.32 50.08z" fill="#e73635"></path><path d="M252.2 507.54L287.11 507.54L287.11 542.45L252.2 542.45z" stroke="#e73635"></path><path d="M689.22 486.73L726.81 486.73L726.81 527.62L689.22 527.62z" stroke="#037b0b"></path><path d="M1243.47 540.02L1269.87 540.02L1269.87 576.39L1243.47 576.39z" fill="#e73635"></path><path d="M600.22 335.93 a4.93 4.93 0 1 0 9.86 0 a4.93 4.93 0 1 0 -9.86 0z" stroke="#e73635"></path><path d="M75.88 175.64 a9.11 9.11 0 1 0 18.22 0 a9.11 9.11 0 1 0 -18.22 0z" stroke="#e73635"></path><path d="M382.99 27.12 a11.65 11.65 0 1 0 23.3 0 a11.65 11.65 0 1 0 -23.3 0z" stroke="#037b0b"></path><path d="M1359.8 161.21 a13.41 13.41 0 1 0 26.82 0 a13.41 13.41 0 1 0 -26.82 0z" stroke="#d3b714"></path><path d="M884.49 460.58L932.07 460.58L932.07 506.96L884.49 506.96z" fill="#d3b714"></path><path d="M1280.56 495.11L1330.26 495.11L1330.26 532.98L1280.56 532.98z" stroke="#d3b714"></path><path d="M449.1 493.41L449.94 493.41L449.94 533.21L449.1 533.21z" stroke="#d3b714"></path></g><defs><mask id="SvgjsMask1003"><rect width="1440" height="560" fill="#ffffff"></rect></mask></defs></svg>