<svg id="visual" viewBox="0 0 900 600" width="900" height="600" xmlns="http://www.w3.org/2000/svg" xmlns:xlink="http://www.w3.org/1999/xlink" version="1.1"><path d="M0 404L21.5 402.7C43 401.3 86 398.7 128.8 400.7C171.7 402.7 214.3 409.3 257.2 418C300 426.7 343 437.3 385.8 437.2C428.7 437 471.3 426 514.2 425.8C557 425.7 600 436.3 642.8 432C685.7 427.7 728.3 408.3 771.2 406.7C814 405 857 421 878.5 429L900 437L900 601L878.5 601C857 601 814 601 771.2 601C728.3 601 685.7 601 642.8 601C600 601 557 601 514.2 601C471.3 601 428.7 601 385.8 601C343 601 300 601 257.2 601C214.3 601 171.7 601 128.8 601C86 601 43 601 21.5 601L0 601Z" fill="#6afa69"></path><path d="M0 449L21.5 441.3C43 433.7 86 418.3 128.8 415.3C171.7 412.3 214.3 421.7 257.2 432.8C300 444 343 457 385.8 456.2C428.7 455.3 471.3 440.7 514.2 441C557 441.3 600 456.7 642.8 454.7C685.7 452.7 728.3 433.3 771.2 422.3C814 411.3 857 408.7 878.5 407.3L900 406L900 601L878.5 601C857 601 814 601 771.2 601C728.3 601 685.7 601 642.8 601C600 601 557 601 514.2 601C471.3 601 428.7 601 385.8 601C343 601 300 601 257.2 601C214.3 601 171.7 601 128.8 601C86 601 43 601 21.5 601L0 601Z" fill="#35f092"></path><path d="M0 500L21.5 495C43 490 86 480 128.8 478.2C171.7 476.3 214.3 482.7 257.2 479C300 475.3 343 461.7 385.8 453.3C428.7 445 471.3 442 514.2 447.2C557 452.3 600 465.7 642.8 476.2C685.7 486.7 728.3 494.3 771.2 495.8C814 497.3 857 492.7 878.5 490.3L900 488L900 601L878.5 601C857 601 814 601 771.2 601C728.3 601 685.7 601 642.8 601C600 601 557 601 514.2 601C471.3 601 428.7 601 385.8 601C343 601 300 601 257.2 601C214.3 601 171.7 601 128.8 601C86 601 43 601 21.5 601L0 601Z" fill="#00e3af"></path><path d="M0 528L21.5 523.7C43 519.3 86 510.7 128.8 512.8C171.7 515 214.3 528 257.2 527C300 526 343 511 385.8 504.3C428.7 497.7 471.3 499.3 514.2 501C557 502.7 600 504.3 642.8 502.3C685.7 500.3 728.3 494.7 771.2 492.5C814 490.3 857 491.7 878.5 492.3L900 493L900 601L878.5 601C857 601 814 601 771.2 601C728.3 601 685.7 601 642.8 601C600 601 557 601 514.2 601C471.3 601 428.7 601 385.8 601C343 601 300 601 257.2 601C214.3 601 171.7 601 128.8 601C86 601 43 601 21.5 601L0 601Z" fill="#00d4c0"></path><path d="M0 567L21.5 566.8C43 566.7 86 566.3 128.8 560.2C171.7 554 214.3 542 257.2 540.3C300 538.7 343 547.3 385.8 546.5C428.7 545.7 471.3 535.3 514.2 531.8C557 528.3 600 531.7 642.8 536.7C685.7 541.7 728.3 548.3 771.2 549C814 549.7 857 544.3 878.5 541.7L900 539L900 601L878.5 601C857 601 814 601 771.2 601C728.3 601 685.7 601 642.8 601C600 601 557 601 514.2 601C471.3 601 428.7 601 385.8 601C343 601 300 601 257.2 601C214.3 601 171.7 601 128.8 601C86 601 43 601 21.5 601L0 601Z" fill="#24c4c7"></path></svg>