<svg id="visual" viewBox="0 0 900 600" width="900" height="600" xmlns="http://www.w3.org/2000/svg" xmlns:xlink="http://www.w3.org/1999/xlink" version="1.1"><rect x="0" y="0" width="900" height="600" fill="#001220"></rect><path d="M0 379L21.5 376.8C43 374.7 86 370.3 128.8 373.5C171.7 376.7 214.3 387.3 257.2 399.5C300 411.7 343 425.3 385.8 422C428.7 418.7 471.3 398.3 514.2 393.5C557 388.7 600 399.3 642.8 404C685.7 408.7 728.3 407.3 771.2 401.3C814 395.3 857 384.7 878.5 379.3L900 374L900 601L878.5 601C857 601 814 601 771.2 601C728.3 601 685.7 601 642.8 601C600 601 557 601 514.2 601C471.3 601 428.7 601 385.8 601C343 601 300 601 257.2 601C214.3 601 171.7 601 128.8 601C86 601 43 601 21.5 601L0 601Z" fill="#fa7268"></path><path d="M0 437L21.5 433.8C43 430.7 86 424.3 128.8 426C171.7 427.7 214.3 437.3 257.2 433.2C300 429 343 411 385.8 408C428.7 405 471.3 417 514.2 418.5C557 420 600 411 642.8 417.7C685.7 424.3 728.3 446.7 771.2 459C814 471.3 857 473.7 878.5 474.8L900 476L900 601L878.5 601C857 601 814 601 771.2 601C728.3 601 685.7 601 642.8 601C600 601 557 601 514.2 601C471.3 601 428.7 601 385.8 601C343 601 300 601 257.2 601C214.3 601 171.7 601 128.8 601C86 601 43 601 21.5 601L0 601Z" fill="#ef5f67"></path><path d="M0 493L21.5 493C43 493 86 493 128.8 485.2C171.7 477.3 214.3 461.7 257.2 464.3C300 467 343 488 385.8 493.7C428.7 499.3 471.3 489.7 514.2 490C557 490.3 600 500.7 642.8 501.2C685.7 501.7 728.3 492.3 771.2 485.8C814 479.3 857 475.7 878.5 473.8L900 472L900 601L878.5 601C857 601 814 601 771.2 601C728.3 601 685.7 601 642.8 601C600 601 557 601 514.2 601C471.3 601 428.7 601 385.8 601C343 601 300 601 257.2 601C214.3 601 171.7 601 128.8 601C86 601 43 601 21.5 601L0 601Z" fill="#e34c67"></path><path d="M0 499L21.5 503.7C43 508.3 86 517.7 128.8 518.2C171.7 518.7 214.3 510.3 257.2 503.5C300 496.7 343 491.3 385.8 491.8C428.7 492.3 471.3 498.7 514.2 506C557 513.3 600 521.7 642.8 520C685.7 518.3 728.3 506.7 771.2 501.2C814 495.7 857 496.3 878.5 496.7L900 497L900 601L878.5 601C857 601 814 601 771.2 601C728.3 601 685.7 601 642.8 601C600 601 557 601 514.2 601C471.3 601 428.7 601 385.8 601C343 601 300 601 257.2 601C214.3 601 171.7 601 128.8 601C86 601 43 601 21.5 601L0 601Z" fill="#d53867"></path><path d="M0 536L21.5 539.8C43 543.7 86 551.3 128.8 552.2C171.7 553 214.3 547 257.2 548.2C300 549.3 343 557.7 385.8 555C428.7 552.3 471.3 538.7 514.2 534.3C557 530 600 535 642.8 536.2C685.7 537.3 728.3 534.7 771.2 533.2C814 531.7 857 531.3 878.5 531.2L900 531L900 601L878.5 601C857 601 814 601 771.2 601C728.3 601 685.7 601 642.8 601C600 601 557 601 514.2 601C471.3 601 428.7 601 385.8 601C343 601 300 601 257.2 601C214.3 601 171.7 601 128.8 601C86 601 43 601 21.5 601L0 601Z" fill="#c62368"></path></svg>