<svg xmlns="http://www.w3.org/2000/svg" version="1.1" xmlns:xlink="http://www.w3.org/1999/xlink" xmlns:svgjs="http://svgjs.dev/svgjs" width="1440" height="560" preserveAspectRatio="none" viewBox="0 0 1440 560"><g mask="url(&quot;#SvgjsMask1082&quot;)" fill="none"><rect width="1440" height="560" x="0" y="0" fill="rgba(137, 153, 170, 0.26)"></rect><path d="M -776.850355672269,424 C -680.85,351.6 -488.85,50.6 -296.8503556722689,62 C -104.85,73.4 -8.85,473.6 183.1496443277311,481 C 375.15,488.4 471.15,99 663.149644327731,99 C 855.15,99 987.78,490.4 1143.149644327731,481 C 1298.52,471.6 1380.63,137.8 1440,52" stroke="rgba(18, 33, 206, 1)" stroke-width="2"></path><path d="M -396.04084844764935,439 C -300.04,371.4 -108.04,100 83.95915155235066,101 C 275.96,102 371.96,454.4 563.9591515523507,444 C 755.96,433.6 851.96,77.2 1043.9591515523507,49 C 1235.96,20.8 1444.75,293 1523.9591515523507,303 C 1603.17,313 1456.79,139.8 1440,99" stroke="rgba(18, 33, 206, 1)" stroke-width="2"></path><path d="M -730.0312827647335,447 C -634.03,398.8 -442.03,221.8 -250.03128276473348,206 C -58.03,190.2 37.97,385.4 229.96871723526652,368 C 421.97,350.6 517.97,104.8 709.9687172352665,119 C 901.97,133.2 1043.96,446.2 1189.9687172352665,439 C 1335.97,431.8 1389.99,154.2 1440,83" stroke="rgba(18, 33, 206, 1)" stroke-width="2"></path><path d="M -247.46172083418838,34 C -151.46,131.2 40.54,499 232.53827916581162,520 C 424.54,541 520.54,155 712.5382791658117,139 C 904.54,123 1000.54,430.2 1192.5382791658117,440 C 1384.54,449.8 1623.05,197 1672.5382791658117,188 C 1722.03,179 1486.51,353.6 1440,395" stroke="rgba(18, 33, 206, 1)" stroke-width="2"></path><path d="M -654.15755912802,480 C -558.16,421.4 -366.16,193.2 -174.15755912802007,187 C 17.84,180.8 113.84,449.2 305.84244087197993,449 C 497.84,448.8 593.84,198 785.84244087198,186 C 977.84,174 1135.01,389.8 1265.84244087198,389 C 1396.67,388.2 1405.17,223.4 1440,182" stroke="rgba(18, 33, 206, 1)" stroke-width="2"></path></g><defs><mask id="SvgjsMask1082"><rect width="1440" height="560" fill="#ffffff"></rect></mask></defs></svg>